<svg xmlns="http://www.w3.org/2000/svg" width="680.11" height="216.05" viewBox="0 0 680.11 216.05"><defs><style>.cls-1{fill:#04a8c1;}.cls-2{fill:#78797a;}</style></defs><title>Asset 1</title><g id="Layer_2" data-name="Layer 2"><g id="Layer_1-2" data-name="Layer 1"><g id="xX9kT7.tif"><path class="cls-1" d="M106.59.27V18.55C72.85,21.4,47.4,37.3,31.42,67.17a84.73,84.73,0,0,0-8.19,60.37c9.64,42.09,48.43,70.72,89.38,69.44,49.52-1.55,77.58-39.56,83.24-64.43a31,31,0,0,1-13-13H135.54c-4.12,7.46-10.08,12.57-18.39,14.7a26.49,26.49,0,0,1-16.9-1.31C89,128.33,82.47,117.24,83.45,104.65c.88-11.3,10-21.43,21.66-23.91,10.48-2.22,25,1.85,31.66,17.47h44.69c.73-1.35,1.49-2.82,2.32-4.24A27.43,27.43,0,1,1,220,132a5.7,5.7,0,0,0-3.12,3.85c-11.2,37.18-35.54,61.78-72,74.47a103.56,103.56,0,0,1-53,4c-29.53-5.26-53.38-20-71.12-43.92-18-24.2-24.52-51.62-18.61-81.32C10.1,49,33.85,21.7,71.72,6.68A96.63,96.63,0,0,1,103.86,0c.58,0,1.17,0,1.75,0A5.69,5.69,0,0,1,106.59.27ZM227.13,107.75a20.21,20.21,0,1,0-20.33,20A20.34,20.34,0,0,0,227.13,107.75Zm-96.85-.09A20.34,20.34,0,0,0,110,87.29c-11-.1-20,9-20.11,20.27a20.2,20.2,0,0,0,40.4.1Z"/><path class="cls-1" d="M503.52,107.25l39,34.86c-.81,1.06-1.81.66-2.63.67-8.08,0-16.16,0-24.24.07a6.48,6.48,0,0,1-4.87-2q-16.91-16.11-33.91-32.14c-.91-.86-1.74-1.69-3.19-1.68-10.58,0-21.16,0-31.74,0a11.53,11.53,0,0,0-1.44.25v35.31H418.74V33.69a3.14,3.14,0,0,1,2.48-.52q44.48,0,89,0a39.89,39.89,0,0,1,15.62,2.85c6.23,2.62,9.93,7.34,11.83,13.65a45.7,45.7,0,0,1,2,12c.23,9.39,1,18.82-1.75,28-2.63,9-8.94,13.75-17.83,15.39a70.78,70.78,0,0,1-13.91,1.36A3.52,3.52,0,0,0,503.52,107.25Zm-63-18.31H506.1a31.45,31.45,0,0,0,3.49-.16c5.3-.6,7.88-3.18,8.47-8.49a84.89,84.89,0,0,0,.08-14c-.47-8.73-3-11.21-11.73-11.22q-31.49,0-63,0a4.63,4.63,0,0,0-2.88.48Z"/><path class="cls-1" d="M641.09,107.37l39,34.85c-.87.85-1.75.56-2.52.56-8.16,0-16.33,0-24.49.07a6.43,6.43,0,0,1-4.85-2c-11.15-10.64-22.38-21.18-33.52-31.83a6.68,6.68,0,0,0-5.08-2c-9.5.09-19,0-28.49,0h-3.25v35.6H556.23v-109a5.69,5.69,0,0,1,3.16-.42h86a60.26,60.26,0,0,1,13.14,1.28c11.18,2.48,16.38,10.17,17.89,20.8a110.28,110.28,0,0,1,.22,28.41c-1.59,13.62-8.85,20.71-22.47,22.12a91.83,91.83,0,0,1-10.71.79A2.35,2.35,0,0,0,641.09,107.37ZM578,88.53a4.92,4.92,0,0,0,2.69.39q31,0,61.95,0a45.13,45.13,0,0,0,5.47-.35c4-.49,6.27-2.84,7.08-6.68,1.07-5,.82-10.14.44-15.18-.71-9.43-2.79-11.69-12.05-11.67-20.9,0-41.8,0-62.7,0a5.18,5.18,0,0,0-2.88.4Z"/><path class="cls-1" d="M338.7,97.07V79.3h61V142.6H381.78c-.42-3.37-.14-6.87-.83-10.2-1-.24-1.15.46-1.44.89a19.84,19.84,0,0,1-17,9.35c-18.57.25-37.15.17-55.73-.06-6.16-.08-12.28-1.14-17.6-4.75s-7.57-8.93-8.69-14.89a77.84,77.84,0,0,1-1.25-14.16c0-14.33-.07-28.66.08-43a60.33,60.33,0,0,1,2-15.56c2.45-8.83,8.35-13.71,17-15.65a57.1,57.1,0,0,1,12.4-1.37q29.49,0,59,0c9.81,0,17.74,3.92,23.47,12a11.27,11.27,0,0,1,2,4.23c-4.17,4.59-8.61,9-13.23,13.5-1.24-1.44-2.28-2.72-3.41-3.92a12.57,12.57,0,0,0-9.59-4.05c-18.24,0-36.49-.08-54.73-.09a38.38,38.38,0,0,0-5.23.41c-4.64.64-7.62,3.66-7.84,8.3q-1.16,24.35,0,48.7c.26,5.49,3.16,8.25,8.66,8.8,1.66.16,3.33.22,5,.22,15.58,0,31.16,0,46.74,0,4,0,8,0,11.86-1.3,3.58-1.25,5.85-3.76,6.07-7.49.28-5,.07-10,.07-15.41Z"/><path class="cls-1" d="M31.89,111h14.5c3.67,29,19,49.19,47.18,57.32,28.41,8.2,51.77-1.78,70.25-24.13a6.07,6.07,0,0,1,2.72,1.3c3.12,1.88,6.22,3.81,9.33,5.72-14,21.33-46.55,39.55-82.2,31.41C55,173.85,32.27,140.74,31.89,111Z"/><path class="cls-1" d="M106.92,43.51V30.37c23-6.75,69.55,20.52,75.8,44.28-1.6,1.26-10.4,5.48-13.1,6.2a66,66,0,0,0-25.48-28.13A64.49,64.49,0,0,0,106.92,43.51Z"/><path class="cls-2" d="M281.08,160.45c6.78,0,13.27-.12,19.74.05,3.32.09,4.9,1.88,5.27,5.19a30.16,30.16,0,0,1,.18,3.24c0,3.9-1,6.77-5.45,7.21a6.23,6.23,0,0,0-1.47.7l7,6.54c-2.77.61-5.44,1.57-7.55-1.08-.72-.9-1.79-1.55-2.44-2.49-2.63-3.79-6.3-4.11-10.5-3.31-.77,2.26.06,4.72-.52,7.11-1.3.87-2.69.34-4.24.39Zm19.22,4.62c-4.7.11-9.62-.25-14.62.25-.15,2.38-.4,4.49.2,6.72h14.58C302.22,169.6,302.2,167.74,300.3,165.07Z"/><path class="cls-2" d="M390.27,184.06V161c.25-.21.37-.4.5-.4a142.13,142.13,0,0,1,21.16.13c3.21.33,4.55,1.87,4.69,5.13.19,4.23.17,8.49,0,12.72-.1,2.47-1.12,4.71-3.92,5.06C405.33,184.58,397.95,183.89,390.27,184.06Zm4.62-4.71c3.82,0,7.3,0,10.77,0,7.31,0,6.46.07,6.43-6.53,0-2.35.54-4.8-.7-7.38H394.93A137.84,137.84,0,0,0,394.89,179.35Z"/><path class="cls-2" d="M438.18,183.77V160.82c1.33-.69,2.6-.41,3.83-.42q7.11-.05,14.23,0c5,0,6.65,1.55,7.09,6.62a18.86,18.86,0,0,1,.08,2.74c-.24,4.08-1.34,5.35-5.32,6.29a1.85,1.85,0,0,0-1.43.8c1.76,2.61,4.81,4.08,6.85,7-3.14.44-5.93.93-8.05-1.92-.74-1-1.89-1.67-2.6-2.68-2.59-3.66-6.19-3.17-9.88-2.72-.76,2.44.1,4.91-.58,7.25A6.59,6.59,0,0,1,438.18,183.77Zm19.61-18.43h-15c-.05,2.39-.34,4.5.22,6.69h14.7C459.34,169.76,459.2,167.63,457.78,165.34Z"/><path class="cls-2" d="M662.89,179.42H679.6a5.77,5.77,0,0,1,.13,4.41H658V160.62h21.65a6.22,6.22,0,0,1,0,4.45H663a7.91,7.91,0,0,0-.07,5.06h15.89c1.11,1.36.68,2.49.66,3.87-5.49.65-10.89-.05-16.31.41C662.16,175.87,662.52,177.38,662.89,179.42Z"/><path class="cls-2" d="M470.88,160.58h21.57c.72,1.35.3,2.72.31,4.5H475.89c-.85,1.83-.59,3.25-.35,5h16.05c1,1.37.82,2.48.47,3.89-5.37.68-10.85-.1-16.24.42a6.31,6.31,0,0,0-.15,4.7c5.59.61,11.23-.08,16.89.4a7.63,7.63,0,0,1,0,4.39H470.88Z"/><path class="cls-2" d="M522.25,160.83c.38,1.33-.12,2.57-.54,4.28h-7.08l-7.74,0c-1.17,0-2.44,0-3,1.31s-.35,2.45,1.21,3.75c3.06,0,6.54,0,10,0a27.73,27.73,0,0,1,4.2.45,4.48,4.48,0,0,1,2.88,1.84c3.08,4.2.31,11.07-4.82,11.35-5.79.32-11.62.07-17.41.07-.82-1.51-.29-2.83-.06-4.59h17.11c1.66-1.66,1.74-3,.71-4.42-.93-.75-2-.6-3.11-.63-3.49-.07-7,0-10.48-.24s-4.7-1.79-5-5.06c-.66-6.38,1.29-8.6,7.67-8.65,4.33,0,8.66,0,13,0A3.51,3.51,0,0,1,522.25,160.83Z"/><path class="cls-2" d="M574,160.5c2.66,0,5.34-.2,8,0,3.63.34,5.1,1.8,5.39,5.37a73.9,73.9,0,0,1,0,13c-.3,3.11-1.59,4.53-4.72,4.88a80,80,0,0,1-17.44-.1c-2.63-.29-3.89-2.3-4-4.74-.17-4.41-.2-8.83,0-13.23.14-3.24,2-4.95,5.32-5.14,2.49-.15,5,0,7.49,0Zm-7.2,4.62c-1.59,2.85-1.55,11.63,0,14.14,4.94.23,10,.09,15.43-.14,1.28-4.55.71-8.92.3-13.52C577.15,164.62,572,165.22,566.83,165.12Z"/><path class="cls-2" d="M627.47,184.08a8.18,8.18,0,0,1,.09-4.37c5.82-.81,11.82.12,17.52-.65a3.07,3.07,0,0,0,.42-4c-1-.81-2.08-.67-3.15-.69-3.33-.06-6.66,0-10-.17-3.62-.19-5.09-1.61-5.65-5.08-.95-5.79,1.36-8.62,7.21-8.67,5,0,10,0,15,0a3.19,3.19,0,0,1,.81.26c.55,1.37.2,2.69-.49,4.43H632.65c-1.78,1.79-1.74,3.16-.46,4.64,1.47.67,3.07.33,4.63.39,2.08.08,4.16.08,6.24.07,7.32,0,8.66,3.21,7.35,10.09-.42,2.21-2.24,3.27-4.39,3.48C639.88,184.4,633.74,184,627.47,184.08Z"/><path class="cls-2" d="M615.6,176.41V161.09c1.48-1.09,2.78-.58,4.26-.61V183.7c-2.18.63-4.14.73-6-1.29-3.79-4.21-7.73-8.28-11.64-12.37-.66-.68-1.14-1.66-2.64-1.87v15.21a5.08,5.08,0,0,1-4.33.34v-23c2.56-.63,4.68-.66,6.6,1.56,3.59,4.16,7.41,8.12,11.15,12.14A5.48,5.48,0,0,0,615.6,176.41Z"/><path class="cls-2" d="M530.46,183.83V161a2.06,2.06,0,0,1,1.82-.62c5.25,0,10.5-.06,15.74,0,4.45.07,6.13,1.76,6.44,6.18.55,8-1,9.64-8.95,9.64H535.37c-.87,2.64,0,5.11-.68,7.46A6.84,6.84,0,0,1,530.46,183.83Zm18.79-18.49a125.09,125.09,0,0,0-14.09,0,19.74,19.74,0,0,0,.1,6.71H549C550.32,169.85,550.13,167.82,549.25,165.33Z"/><path class="cls-2" d="M352.33,176.25v7.29a6.49,6.49,0,0,1-4.4.3V160.89a2.16,2.16,0,0,1,1.7-.5c5.16,0,10.32-.1,15.48,0s6.62,1.75,6.79,6.85c.25,7.45-1.2,9-8.68,9Zm14-4.2a7,7,0,0,0,.27-6.62H352.51a21.87,21.87,0,0,0,0,6.62Z"/><path class="cls-2" d="M319.51,178.85l-2.7,4.79a10.47,10.47,0,0,1-5.35.06l12.48-23.2h4.8l12.38,23c-1.76.84-3.29.46-4.81.37-1.44-1.3-1.79-3.23-3.19-4.86C328.79,178.6,324.24,179,319.51,178.85Zm11.81-4.22-4.88-9.08a59,59,0,0,0-4.86,9A63.23,63.23,0,0,0,331.32,174.63Z"/><path class="cls-2" d="M382.93,183.74a6.79,6.79,0,0,1-4.19,0V160.83a5.59,5.59,0,0,1,4.19,0Z"/></g></g></g></svg>